<?xml version="1.0" encoding="utf-8"?>
<!-- Generator: Adobe Illustrator 16.0.0, SVG Export Plug-In . SVG Version: 6.00 Build 0)  -->
<!DOCTYPE svg PUBLIC "-//W3C//DTD SVG 1.1//EN" "http://www.w3.org/Graphics/SVG/1.1/DTD/svg11.dtd">
<svg version="1.1" id="Layer_1" xmlns="http://www.w3.org/2000/svg" xmlns:xlink="http://www.w3.org/1999/xlink" x="0px" y="0px"
	 width="151.755px" height="206.276px" viewBox="0 0 151.755 206.276" enable-background="new 0 0 151.755 206.276"
	 xml:space="preserve">
<path fill-rule="evenodd" clip-rule="evenodd" fill="#BD081C" d="M0.012,43.651C0.088,42.735,68.866,5.172,68.866,5.172
	s7.933-5.363,8.917-5.167c0.833,0.167,3.583,3.833,3.666,7.833c0.026,1.23-2.172,8.994-4.166,14.5
	c-1.425,3.934-3.083,6.583-1.5,10.167c1.016,2.298,24.333,43,25.333,43.75s13.75-0.667,24.082,4.5
	c13.07,6.536,28.168,21.75,26.418,24.75s-37.543,20.771-37.25,23.5c0.335,3.139,28.857,75.271,28.857,75.271l0.105,2
	c0,0-54.463-65.27-52.963-65.27s-36.5,20.75-37.5,20.25s-9.333-11.668-8.167-34.168c0.414-7.991,7.729-22.237,8.333-25.667
	c0.5-2.833-15.833-33.667-25.833-44.583c-1.453-1.586-6.487-1.487-10.824-2.15c-3.334-0.51-6.511-1.145-8.176-2.267
	C5.695,50.734-0.301,47.401,0.012,43.651z"/>
</svg>
