<?xml version="1.0" standalone="no"?>
<!DOCTYPE svg PUBLIC "-//W3C//DTD SVG 20010904//EN"
 "http://www.w3.org/TR/2001/REC-SVG-20010904/DTD/svg10.dtd">
<svg version="1.0" xmlns="http://www.w3.org/2000/svg"
 width="678.000000pt" height="678.000000pt" viewBox="0 0 678.000000 678.000000"
 preserveAspectRatio="xMidYMid meet">
<metadata>
Created by potrace 1.11, written by Peter Selinger 2001-2013
</metadata>
<g transform="translate(0.000000,678.000000) scale(0.100000,-0.100000)"
fill="#000000" stroke="none">
<path d="M3380 6753 c-25 -14 -83 -51 -130 -81 -91 -59 -103 -66 -225 -132
-44 -24 -138 -75 -210 -115 -71 -40 -166 -91 -210 -115 -44 -24 -116 -63 -160
-88 -44 -25 -98 -55 -120 -67 -22 -12 -69 -38 -105 -57 -36 -20 -92 -51 -126
-70 -97 -53 -466 -258 -498 -276 -29 -17 -184 -103 -281 -157 -81 -44 -132
-74 -282 -162 -128 -75 -143 -86 -143 -111 0 -42 39 -97 116 -162 64 -54 172
-120 229 -139 65 -21 205 -47 300 -55 210 -18 223 -23 311 -131 83 -101 334
-471 334 -491 0 -4 6 -15 14 -23 8 -9 24 -34 36 -56 224 -397 350 -643 388
-759 20 -58 20 -60 1 -115 -10 -31 -23 -65 -29 -76 -16 -33 -110 -274 -142
-365 -73 -203 -92 -305 -91 -495 1 -301 44 -533 141 -765 39 -95 117 -220 136
-220 12 0 412 199 496 247 40 22 140 77 220 120 115 62 339 188 424 240 73 44
91 51 98 39 14 -26 208 -273 373 -476 268 -329 654 -800 665 -810 3 -3 32 -39
65 -80 33 -41 63 -77 66 -80 3 -3 50 -59 105 -126 267 -326 450 -543 457 -543
16 -1 -1 65 -47 184 -26 66 -56 139 -67 162 -10 24 -19 47 -19 52 0 5 -11 36
-25 68 -13 32 -63 157 -110 278 -47 121 -90 229 -94 240 -5 11 -21 52 -36 90
-15 39 -91 237 -170 440 -178 460 -263 684 -305 800 -18 50 -42 117 -54 150
-12 33 -20 67 -18 75 5 25 99 90 317 223 22 13 193 111 380 217 334 189 490
285 514 314 21 25 19 49 -6 99 -60 121 -293 353 -527 527 -248 184 -440 273
-666 310 -103 17 -125 19 -235 25 -192 10 -208 13 -229 37 -16 20 -168 270
-229 378 -10 19 -61 107 -112 195 -51 88 -102 176 -113 195 -10 19 -81 143
-157 275 -212 371 -228 403 -228 472 1 32 8 78 18 103 47 122 137 396 160 488
33 129 30 187 -15 278 -34 69 -64 104 -89 103 -9 0 -36 -12 -61 -26z"/>
</g>
</svg>
